<svg xmlns="http://www.w3.org/2000/svg"
 xmlns:xlink="http://www.w3.org/1999/xlink"
 width="42px" height="42px"  viewBox="0 0 42 42">
<path fill-rule="evenodd"  fill="#fed136"
 d="M4.5082703,18.331055 C4.5082703,18.331055 37.548157,18.331055 37.548157,18.331055 C37.548157,18.331055 36.277344,40.357788 36.277344,40.357788 C36.277344,40.357788 5.7790527,40.357788 5.7790527,40.357788 C5.7790527,40.357788 4.5082703,18.331055 4.5082703,18.331055 ZM5.196686,11.447876 C5.196686,11.447876 36.859802,11.447876 36.859802,11.447876 C38.76062,11.447876 40.301544,12.988525 40.301544,14.889282 C40.301544,16.789734 38.76062,18.331055 36.859802,18.331055 C36.859802,18.331055 5.196686,18.331055 5.196686,18.331055 C3.295868,18.331055 1.7549438,16.789734 1.7549438,14.889282 C1.7549438,12.988525 3.295868,11.447876 5.196686,11.447876 ZM3.1316528,18.331055 C3.1316528,18.331055 38.924774,18.331055 38.924774,18.331055 C38.924774,18.331055 38.924774,19.70752 38.924774,19.70752 C38.924774,19.70752 3.1316528,19.70752 3.1316528,19.70752 C3.1316528,19.70752 3.1316528,18.331055 3.1316528,18.331055 ZM21.028168,25.2146 C21.788605,25.2146 22.404877,25.830383 22.404877,26.590698 C22.404877,26.590698 22.404877,34.851013 22.404877,34.851013 C22.404877,35.61133 21.788605,36.227783 21.028168,36.227783 C20.267975,36.227783 19.65155,35.61133 19.65155,34.851013 C19.65155,34.851013 19.65155,26.590698 19.65155,26.590698 C19.65155,25.830383 20.267975,25.2146 21.028168,25.2146 ZM29.288269,25.2146 C30.048492,25.2146 30.664886,25.830383 30.664886,26.590698 C30.664886,26.590698 30.664886,34.851013 30.664886,34.851013 C30.664886,35.61133 30.048492,36.227783 29.288269,36.227783 C28.527924,36.227783 27.911499,35.61133 27.911499,34.851013 C27.911499,34.851013 27.911499,26.590698 27.911499,26.590698 C27.911499,25.830383 28.527924,25.2146 29.288269,25.2146 ZM12.76828,25.2146 C13.528503,25.2146 14.144897,25.830383 14.144897,26.590698 C14.144897,26.590698 14.144897,34.851013 14.144897,34.851013 C14.144897,35.61133 13.528503,36.227783 12.76828,36.227783 C12.007935,36.227783 11.391602,35.61133 11.391602,34.851013 C11.391602,34.851013 11.391602,26.590698 11.391602,26.590698 C11.391602,25.830383 12.007935,25.2146 12.76828,25.2146 ZM24.814056,2.6411133 C26.130829,1.8804321 27.814789,2.331604 28.575073,3.6486206 C28.575073,3.6486206 32.70508,10.802246 32.70508,10.802246 C33.46527,12.119202 33.01425,13.8029785 31.697296,14.563293 C30.38034,15.323608 28.696472,14.87207 27.936127,13.555054 C27.936127,13.555054 23.806274,6.4021606 23.806274,6.4021606 C23.045898,5.085144 23.49701,3.4017334 24.814056,2.6411133 ZM17.24237,2.6411133 C15.925507,1.8804321 14.241638,2.331604 13.481171,3.6486206 C13.481171,3.6486206 9.351257,10.802246 9.351257,10.802246 C8.590973,12.119202 9.042084,13.8029785 10.3591,14.563293 C11.675964,15.323608 13.359833,14.87207 14.120209,13.555054 C14.120209,13.555054 18.250061,6.4021606 18.250061,6.4021606 C19.010437,5.085144 18.559235,3.4017334 17.24237,2.6411133 Z"/>
</svg>