<svg xmlns="http://www.w3.org/2000/svg"
 xmlns:xlink="http://www.w3.org/1999/xlink"
 width="31px" height="40px"  viewBox="0 0 31 40">
<path fill-rule="evenodd"  fill="#fed136"
 d="M15.684814,1.6326904 C20.839355,1.6326904 25.017822,5.2890015 25.017822,9.7994995 C25.017822,9.7994995 25.017822,29.632141 25.017822,29.632141 C25.017822,34.141907 20.839355,37.79785 15.684814,37.79785 C10.530518,37.79785 6.3519287,34.141907 6.3519287,29.632141 C6.3519287,29.632141 6.3519287,9.7994995 6.3519287,9.7994995 C6.3519287,5.2890015 10.530518,1.6326904 15.684814,1.6326904 ZM15.684814,6.2993164 C18.262085,6.2993164 20.351318,7.866699 20.351318,9.7994995 C20.351318,9.7994995 20.351318,17.96521 20.351318,17.96521 C20.351318,19.898682 18.262085,21.465332 15.684814,21.465332 C13.107666,21.465332 11.018311,19.898682 11.018311,17.96521 C11.018311,17.96521 11.018311,9.7994995 11.018311,9.7994995 C11.018311,7.866699 13.107666,6.2993164 15.684814,6.2993164 ZM5.185364,19.132385 C5.185364,19.132385 26.184448,19.132385 26.184448,19.132385 C28.117432,19.132385 29.684326,20.699036 29.684326,22.632507 C29.684326,22.632507 29.684326,35.464905 29.684326,35.464905 C29.684326,37.397644 28.117432,38.965027 26.184448,38.965027 C26.184448,38.965027 5.185364,38.965027 5.185364,38.965027 C3.2524414,38.965027 1.6854858,37.397644 1.6854858,35.464905 C1.6854858,35.464905 1.6854858,22.632507 1.6854858,22.632507 C1.6854858,20.699036 3.2524414,19.132385 5.185364,19.132385 ZM15.684814,24.965515 C16.973633,24.965515 18.018066,26.009949 18.018066,27.298096 C18.018066,27.298096 18.018066,33.131226 18.018066,33.131226 C18.018066,34.420776 16.973633,35.464905 15.684814,35.464905 C14.39624,35.464905 13.351685,34.420776 13.351685,33.131226 C13.351685,33.131226 13.351685,27.298096 13.351685,27.298096 C13.351685,26.009949 14.39624,24.965515 15.684814,24.965515 ZM15.684814,22.632507 C18.262085,22.632507 20.351318,24.721802 20.351318,27.298096 C20.351318,29.875488 18.262085,31.965088 15.684814,31.965088 C13.107666,31.965088 11.018311,29.875488 11.018311,27.298096 C11.018311,24.721802 13.107666,22.632507 15.684814,22.632507 Z"/>
</svg>