<svg xmlns="http://www.w3.org/2000/svg"
 xmlns:xlink="http://www.w3.org/1999/xlink"
 width="43px" height="37px"  viewBox="0 0 43 37">
<path fill-rule="evenodd"  fill="#fed136"
 d="M8.356445,1.9002075 C8.356445,1.9002075 35.26367,1.9002075 35.26367,1.9002075 C37.492676,1.9002075 39.299805,3.7070923 39.299805,5.935913 C39.299805,5.935913 39.299805,23.425781 39.299805,23.425781 C39.299805,25.654602 37.492676,27.461853 35.26367,27.461853 C35.26367,27.461853 8.356445,27.461853 8.356445,27.461853 C6.1275024,27.461853 4.3203735,25.654602 4.3203735,23.425781 C4.3203735,23.425781 4.3203735,5.935913 4.3203735,5.935913 C4.3203735,3.7070923 6.1275024,1.9002075 8.356445,1.9002075 ZM4.3203735,24.77124 C4.3203735,24.77124 8.356445,24.77124 8.356445,24.77124 C8.356445,24.77124 8.356445,27.461853 8.356445,27.461853 C8.356445,27.461853 4.3203735,27.461853 4.3203735,27.461853 C4.3203735,27.461853 4.3203735,24.77124 4.3203735,24.77124 ZM35.26367,24.77124 C35.26367,24.77124 39.299805,24.77124 39.299805,24.77124 C39.299805,24.77124 39.299805,27.461853 39.299805,27.461853 C39.299805,27.461853 35.26367,27.461853 35.26367,27.461853 C35.26367,27.461853 35.26367,24.77124 35.26367,24.77124 ZM8.356445,5.935913 C8.356445,5.935913 35.26367,5.935913 35.26367,5.935913 C35.26367,5.935913 35.26367,30.1521 35.26367,30.1521 C35.26367,30.1521 8.356445,30.1521 8.356445,30.1521 C8.356445,30.1521 8.356445,5.935913 8.356445,5.935913 ZM4.3203735,30.1521 C4.3203735,30.1521 39.299805,30.1521 39.299805,30.1521 C40.785767,30.1521 41.99054,31.357239 41.99054,32.843384 C41.99054,34.329224 39.44043,35.533997 37.954407,35.533997 C37.954407,35.533997 5.6657715,35.533997 5.6657715,35.533997 C4.1796875,35.533997 1.6296387,34.329224 1.6296387,32.843384 C1.6296387,31.357239 2.8344727,30.1521 4.3203735,30.1521 ZM17.774048,32.843384 C17.774048,32.843384 25.846252,32.843384 25.846252,32.843384 C26.589233,32.843384 27.19165,33.14441 27.19165,33.51581 C27.19165,33.887146 26.589233,34.188538 25.846252,34.188538 C25.846252,34.188538 17.774048,34.188538 17.774048,34.188538 C17.030945,34.188538 16.428772,33.887146 16.428772,33.51581 C16.428772,33.14441 17.030945,32.843384 17.774048,32.843384 ZM12.776672,17.684082 C12.776672,17.684082 14.670898,15.780884 14.670898,15.780884 C15.193848,15.255798 16.041931,15.255798 16.565002,15.780884 C16.565002,15.780884 21.300476,20.538208 21.300476,20.538208 C21.823425,21.063599 21.823425,21.914978 21.300476,22.440369 C21.300476,22.440369 19.406311,24.342896 19.406311,24.342896 C18.883118,24.868286 18.035156,24.868286 17.512085,24.342896 C17.512085,24.342896 12.776672,19.586609 12.776672,19.586609 C12.253662,19.061218 12.253662,18.209839 12.776672,17.684082 ZM28.944458,10.237183 C28.944458,10.237183 30.838684,12.139343 30.838684,12.139343 C31.361633,12.664734 31.361633,13.516846 30.838684,14.042236 C30.838684,14.042236 20.420654,24.506409 20.420654,24.506409 C19.897583,25.0318 19.049622,25.0318 18.526367,24.506409 C18.526367,24.506409 16.632324,22.603882 16.632324,22.603882 C16.109314,22.078186 16.109314,21.22644 16.632324,20.701416 C16.632324,20.701416 27.050232,10.237183 27.050232,10.237183 C27.573242,9.711426 28.421387,9.711426 28.944458,10.237183 Z"/>
</svg>